<?xml version="1.0" encoding="utf-8"?>
<!-- Generator: Adobe Illustrator 16.0.0, SVG Export Plug-In . SVG Version: 6.00 Build 0)  -->
<!DOCTYPE svg PUBLIC "-//W3C//DTD SVG 1.1//EN" "http://www.w3.org/Graphics/SVG/1.1/DTD/svg11.dtd">
<svg version="1.1" id="Layer_1" xmlns="http://www.w3.org/2000/svg" xmlns:xlink="http://www.w3.org/1999/xlink" x="0px" y="0px"
	 width="252px" height="252px" viewBox="0 0 252 252" enable-background="new 0 0 252 252" xml:space="preserve">
<g>
	<g>
		<path d="M164.611,49.775c-0.57,0-1.146-0.168-1.65-0.519c-2.723-1.895-5.621-3.583-8.613-5.021
			c-1.439-0.69-2.047-2.418-1.355-3.857c0.691-1.44,2.422-2.048,3.857-1.355c3.271,1.57,6.438,3.415,9.416,5.485
			c1.311,0.912,1.635,2.713,0.723,4.023C166.424,49.343,165.525,49.775,164.611,49.775z"/>
	</g>
	<g>
		<path d="M75.746,60.486c-0.676,0-1.354-0.234-1.9-0.713c-1.203-1.05-1.326-2.877-0.277-4.08
			c12.953-14.832,31.668-23.338,51.344-23.338h2.5c5.156,0,10.299,0.579,15.283,1.723c1.555,0.356,2.529,1.907,2.174,3.465
			c-0.357,1.558-1.91,2.528-3.467,2.173c-4.562-1.046-9.27-1.576-13.992-1.576h-2.5c-18.006,0-35.133,7.785-46.986,21.358
			C77.353,60.151,76.552,60.486,75.746,60.486z"/>
	</g>
	<g>
		<path d="M60.298,174.107H41.664c-21.437,0-38.876-17.439-38.876-38.875c0-21.436,17.44-38.875,38.876-38.875h18.635
			c1.597,0,2.892,1.294,2.892,2.892v71.968C63.19,172.812,61.896,174.107,60.298,174.107z M41.664,102.14
			c-18.248,0-33.093,14.845-33.093,33.092c0,18.248,14.845,33.092,33.093,33.092h15.743V102.14H41.664z"/>
	</g>
	<g>
		<path d="M210.336,174.107h-18.633c-1.598,0-2.893-1.295-2.893-2.891V99.248c0-1.597,1.295-2.892,2.893-2.892h18.633
			c21.438,0,38.877,17.44,38.877,38.875C249.213,156.666,231.773,174.107,210.336,174.107z M194.596,168.324h15.74
			c18.248,0,33.094-14.844,33.094-33.092c0-18.248-14.846-33.092-33.094-33.092h-15.74V168.324z"/>
	</g>
	<g>
		<path d="M210.658,102.141c-1.598,0-2.893-1.294-2.893-2.892v-3.668c0-44.121-35.895-80.02-80.02-80.02h-3.176
			c-44.121,0-80.017,35.896-80.017,80.02v3.668c0,1.597-1.294,2.892-2.891,2.892c-1.597,0-2.892-1.294-2.892-2.892v-3.668
			c0-47.311,38.489-85.803,85.8-85.803h3.176c47.312,0,85.803,38.49,85.803,85.803v3.668
			C213.549,100.847,212.256,102.141,210.658,102.141z"/>
	</g>
	<g>
		<path d="M109.689,226.656c-30.308,0-55.492-20.303-66.068-53.486c-0.485-1.521,0.355-3.15,1.876-3.635s3.148,0.355,3.634,1.877
			c4.69,14.717,12.585,27.084,22.831,35.762c11.295,9.562,24.683,14.148,39.786,13.666c1.587-0.039,2.932,1.199,2.984,2.795
			c0.054,1.596-1.198,2.934-2.793,2.982C111.187,226.645,110.433,226.656,109.689,226.656z"/>
	</g>
	<g>
		<path d="M127.768,242.221c-10.099,0-18.312-8.215-18.312-18.312c0-10.096,8.213-18.312,18.312-18.312
			c10.098,0,18.312,8.217,18.312,18.312C146.08,234.006,137.863,242.221,127.768,242.221z M127.768,211.377
			c-6.909,0-12.53,5.621-12.53,12.531c0,6.908,5.621,12.529,12.53,12.529c6.908,0,12.529-5.621,12.529-12.529
			C140.297,216.998,134.676,211.377,127.768,211.377z"/>
	</g>
</g>
</svg>
