<?xml version="1.0" encoding="utf-8"?>
<!-- Generator: Adobe Illustrator 16.0.0, SVG Export Plug-In . SVG Version: 6.00 Build 0)  -->
<!DOCTYPE svg PUBLIC "-//W3C//DTD SVG 1.1//EN" "http://www.w3.org/Graphics/SVG/1.1/DTD/svg11.dtd">
<svg version="1.1" id="Layer_1" xmlns="http://www.w3.org/2000/svg" xmlns:xlink="http://www.w3.org/1999/xlink" x="0px" y="0px"
	 width="252px" height="252px" viewBox="0 0 252 252" enable-background="new 0 0 252 252" xml:space="preserve">
<g>
	<g>
		<path d="M214.509,5.646H37.865c-2.701,0-4.892,2.188-4.892,4.893v230.922c0,2.702,2.189,4.893,4.892,4.893h176.644
			c2.701,0,4.894-2.189,4.894-4.893V10.539C219.402,7.837,217.21,5.646,214.509,5.646z M212.792,240.266H39.585V11.732h173.208
			L212.792,240.266L212.792,240.266z"/>
	</g>
	<g>
		<path d="M35.335,209.102c-17.444,0-31.636-13.131-31.636-29.273s14.192-29.275,31.636-29.275c1.565,0,2.833,1.27,2.833,2.834
			c0,1.562-1.268,2.832-2.833,2.832c-14.32,0-25.97,10.592-25.97,23.609s11.649,23.607,25.97,23.607c1.565,0,2.833,1.27,2.833,2.834
			C38.168,207.833,36.899,209.102,35.335,209.102z"/>
	</g>
	<g>
		<path d="M115.413,209.102H35.335c-1.565,0-2.833-1.269-2.833-2.832c0-1.564,1.268-2.834,2.833-2.834h80.078
			c1.565,0,2.833,1.27,2.833,2.834C118.246,207.833,116.977,209.102,115.413,209.102z"/>
	</g>
	<g>
		<path d="M116.547,227.48c-0.49,0-0.979-0.127-1.417-0.379c-0.876-0.506-1.417-1.44-1.417-2.453v-38.816
			c0-1.012,0.54-1.947,1.417-2.454c0.876-0.507,1.956-0.507,2.833,0l33.617,19.408c0.877,0.505,1.416,1.438,1.416,2.452
			c0,1.012-0.538,1.947-1.416,2.453l-33.617,19.41C117.525,227.354,117.035,227.48,116.547,227.48z M119.38,190.738v29.002
			l25.117-14.502L119.38,190.738z"/>
	</g>
	<g>
		<path d="M190.214,84.885c-0.489,0-0.979-0.127-1.417-0.38l-33.615-19.407c-0.877-0.507-1.418-1.44-1.418-2.453
			c0-1.014,0.541-1.947,1.418-2.453l33.615-19.408c0.877-0.507,1.957-0.507,2.833,0c0.877,0.506,1.417,1.44,1.417,2.453v38.816
			c0,1.012-0.54,1.946-1.417,2.452C191.193,84.758,190.702,84.885,190.214,84.885z M162.264,62.645l25.117,14.5V48.143
			L162.264,62.645z"/>
	</g>
	<g>
		<path d="M216.665,117.938c-1.565,0-2.833-1.269-2.833-2.832c0-1.565,1.268-2.834,2.833-2.834c14.317,0,25.97-10.592,25.97-23.608
			s-11.65-23.607-25.97-23.607c-1.565,0-2.833-1.27-2.833-2.833c0-1.565,1.268-2.833,2.833-2.833
			c17.442,0,31.636,13.132,31.636,29.273S234.109,117.938,216.665,117.938z"/>
	</g>
	<g>
		<path d="M216.665,65.056h-26.636c-1.563,0-0.832-1.27-0.832-2.833c0-1.565-0.731-2.833,0.832-2.833h26.637
			c1.564,0,2.833,1.268,2.833,2.833C219.498,63.786,218.23,65.056,216.665,65.056z"/>
	</g>
	<g>
		<path d="M159.242,43.369H59.944c-1.565,0-2.833-1.268-2.833-2.833c0-1.563,1.268-2.833,2.833-2.833h99.298
			c1.564,0,2.833,1.27,2.833,2.833C162.075,42.103,160.807,43.369,159.242,43.369z"/>
	</g>
	<g>
		<path d="M142.244,67.922h-82.3c-1.565,0-2.833-1.268-2.833-2.833c0-1.563,1.268-2.833,2.833-2.833h82.3
			c1.564,0,2.833,1.27,2.833,2.833C145.077,66.654,143.809,67.922,142.244,67.922z"/>
	</g>
	<g>
		<path d="M165.854,92.477H59.944c-1.565,0-2.833-1.27-2.833-2.834c0-1.563,1.268-2.832,2.833-2.832h105.91
			c1.564,0,2.832,1.269,2.832,2.832C168.686,91.207,167.418,92.477,165.854,92.477z"/>
	</g>
	<g>
		<path d="M181.904,117.027H59.945c-1.565,0-2.833-1.268-2.833-2.832s1.268-2.834,2.833-2.834h121.959
			c1.566,0,2.834,1.27,2.834,2.834C184.738,115.762,183.471,117.027,181.904,117.027z"/>
	</g>
	<g>
		<path d="M172.461,141.581H59.944c-1.565,0-2.833-1.271-2.833-2.833c0-1.564,1.268-2.833,2.833-2.833h112.517
			c1.564,0,2.833,1.269,2.833,2.833S174.027,141.581,172.461,141.581z"/>
	</g>
	<g>
		<path d="M181.904,166.135H59.945c-1.565,0-2.833-1.27-2.833-2.834s1.268-2.832,2.833-2.832h121.959
			c1.566,0,2.834,1.268,2.834,2.832S183.471,166.135,181.904,166.135z"/>
	</g>
</g>
</svg>
