<?xml version="1.0" encoding="utf-8"?>
<!-- Generator: Adobe Illustrator 16.0.0, SVG Export Plug-In . SVG Version: 6.00 Build 0)  -->
<!DOCTYPE svg PUBLIC "-//W3C//DTD SVG 1.1//EN" "http://www.w3.org/Graphics/SVG/1.1/DTD/svg11.dtd">
<svg version="1.1" id="Layer_1" xmlns="http://www.w3.org/2000/svg" xmlns:xlink="http://www.w3.org/1999/xlink" x="0px" y="0px"
	 width="252px" height="252px" viewBox="0 0 252 252" enable-background="new 0 0 252 252" xml:space="preserve">
<g>
	<g>
		<path fill="#231F20" d="M192.938,113.093v98.761H14.864V40.145h178.073v23.104l7.428-7.428V38.803
			c0-3.036-2.463-5.497-5.498-5.497H12.931c-3.035,0-5.496,2.46-5.496,5.497v174.393c0,3.034,2.459,5.499,5.496,5.499h181.936
			c3.035,0,5.498-2.463,5.498-5.499v-107.53L192.938,113.093z"/>
	</g>
	<g>
		<path fill="#231F20" d="M101.864,181.649c-0.814,0-1.629-0.311-2.25-0.932l-55.703-55.701c-1.243-1.243-1.243-3.258,0-4.502
			c1.244-1.243,3.258-1.243,4.501,0l53.452,53.451L239.131,36.697c1.244-1.243,3.26-1.243,4.502,0c1.242,1.242,1.242,3.259,0,4.5
			L104.116,180.718C103.493,181.339,102.677,181.649,101.864,181.649z"/>
	</g>
</g>
</svg>
